<svg width="25" height="25" viewBox="0 0 25 25" fill="none" xmlns="http://www.w3.org/2000/svg">
<circle cx="12.5" cy="12.5" r="12.5" fill="#FFB800"/>
<path d="M9.68504 11.7734L12.5005 8.95798L15.3173 11.7746L16.9554 10.1365L12.5005 5.68164L8.04699 10.1351L9.6851 11.7733L9.68504 11.7734ZM5.25195 12.9302L6.89018 11.2917L8.52829 12.9298L6.89006 14.5681L5.25195 12.9302ZM9.68504 14.0871L12.5005 16.9024L15.3172 14.0858L16.9562 15.7231L16.9554 15.7239L12.5005 20.1787L8.04699 15.7252L8.04467 15.7229L9.68521 14.0869L9.68504 14.0871ZM16.4727 12.9309L18.1109 11.2926L19.749 12.9308L18.1109 14.569L16.4727 12.9309Z" fill="white"/>
<path d="M14.1616 12.9299H14.1623L12.5001 11.2676L11.2715 12.4958L11.1303 12.637L10.8392 12.9282L10.8369 12.9304L10.8392 12.9328L12.5001 14.5939L14.1624 12.9316L14.1632 12.9307L14.1617 12.9299" fill="white"/>
</svg>
