<svg width="25" height="25" viewBox="0 0 25 25" fill="none" xmlns="http://www.w3.org/2000/svg">
<circle cx="12.5" cy="12.5" r="12.5" fill="#3B82FF"/>
<g clip-path="url(#clip0)">
<path d="M12.6067 4.6875L12.502 5.04347V15.3728L12.6067 15.4773L17.4014 12.6431L12.6067 4.6875Z" fill="white"/>
<path d="M12.6072 4.6875L7.8125 12.6431L12.6072 15.4773V10.4638V4.6875Z" fill="white"/>
<path d="M12.6069 16.3855L12.5479 16.4574V20.1369L12.6069 20.3093L17.4045 13.5527L12.6069 16.3855Z" fill="white"/>
<path d="M12.6072 20.3093V16.3855L7.8125 13.5527L12.6072 20.3093Z" fill="white"/>
<path d="M12.6064 15.4783L17.4011 12.6442L12.6064 10.4648V15.4783Z" fill="white"/>
<path d="M7.8125 12.6442L12.6072 15.4783V10.4648L7.8125 12.6442Z" fill="white"/>
</g>
<defs>
<clipPath id="clip0">
<rect width="9.59233" height="15.625" fill="white" transform="translate(7.99121 4.6875)"/>
</clipPath>
</defs>
</svg>
