<svg width="25" height="25" viewBox="0 0 25 25" fill="none" xmlns="http://www.w3.org/2000/svg">
<circle cx="12.5" cy="12.5" r="12.5" fill="white"/>
<path d="M16.3572 10.61C16.0996 10.4628 15.7682 10.4628 15.4737 10.61L13.4122 11.8248L12.0134 12.5979L9.98869 13.8127C9.731 13.96 9.39969 13.96 9.10519 13.8127L7.52226 12.8556C7.26457 12.7083 7.08051 12.4138 7.08051 12.0825V10.2419C7.08051 9.94741 7.22776 9.65291 7.52226 9.46885L9.10519 8.54854C9.36288 8.40129 9.69419 8.40129 9.98869 8.54854L11.5716 9.50566C11.8293 9.65291 12.0134 9.94741 12.0134 10.2787V11.4935L13.4122 10.6837V9.43204C13.4122 9.13754 13.265 8.84304 12.9705 8.65898L10.0255 6.9288C9.76782 6.78155 9.43651 6.78155 9.14201 6.9288L6.12339 8.69579C5.82889 8.84304 5.68164 9.13754 5.68164 9.43204V12.8924C5.68164 13.1869 5.82889 13.4814 6.12339 13.6655L9.10519 15.3956C9.36288 15.5429 9.69419 15.5429 9.98869 15.3956L12.0134 14.2177L13.4122 13.4078L15.4369 12.2298C15.6946 12.0825 16.0259 12.0825 16.3204 12.2298L17.9034 13.1501C18.161 13.2973 18.3451 13.5918 18.3451 13.9232V15.7638C18.3451 16.0583 18.1979 16.3528 17.9034 16.5368L16.3572 17.4571C16.0996 17.6044 15.7682 17.6044 15.4737 17.4571L13.8908 16.5368C13.6331 16.3896 13.4491 16.0951 13.4491 15.7638V14.5858L12.0502 15.3956V16.6105C12.0502 16.905 12.1974 17.1995 12.4919 17.3835L15.4737 19.1137C15.7314 19.261 16.0627 19.261 16.3572 19.1137L19.339 17.3835C19.5967 17.2363 19.7808 16.9418 19.7808 16.6105V13.1133C19.7808 12.8188 19.6335 12.5243 19.339 12.3402L16.3572 10.61Z" fill="#9C4FFF"/>
</svg>
